Sergeant Pete Sebeck ist mit den Ermittlungen zweier Morde in einer Computerfirma beauftragt. Schnell wird klar, dass es sich nicht um gewöhnliche Fälle handelt. Alle Spuren führen zu Computergenie Matthew Sobol, doch der ist vor kurzem gestorben. Die Polizei steht vor einem Rätsel. Bei der Durchsuchung seines Anwesens kommt es zu einer Katastrophe. Der Gegner ist ein teufliches Vermächtnis. Er ist unsichtbar, übermächtig und absolut tödlich - der Gegner ist ein DAEMON und niemand kann ihm entkommen!

von Daniel Suarez
aus dem Amerikanischen von
Cornelia Holfelder-von der Tann

Regie: Petra Feldhoff
Produktion: WDR 2013
Redaktion: Natalie Szallies 
Länge: 55 Minuten
 
http://www.einslive.de/sendungen/plan_b/krimi/2013/daemon/130408_inhalt.jsp

Audio
Format                                   : MPEG Audio
Format version                           : Version 1
Format profile                           : Layer 3
Mode                                     : Joint stereo
Mode extension                           : MS Stereo
Duration                                 : 2h 45mn
Bit rate mode                            : Constant
Bit rate                                 : 160 Kbps
Channel(s)                               : 2 channels
Sampling rate                            : 44.1 KHz
Compression mode                         : Lossy
Stream size                              : 189 MiB (100%)

General
Complete name                            : 2013-05-1live-wdr-hoerspiel-daniel-suarez-daemon-planb-krimi.m4a
Format                                   : MPEG-4
Format profile                           : Apple audio with iTunes info
Codec ID                                 : M4A 
File size                                : 135 MiB
Duration                                 : 2h 45mn
Overall bit rate mode                    : Variable
Overall bit rate                         : 114 Kbps
Album                                    : WDR Radio zum Mitnehmen
Album/Performer                          : 1LIVE
Track name                               : Daemon
Performer                                : WDR Hörspiel
Genre                                    : Other
Recorded date                            : 2013
Cover                                    : Yes
©lyr                                     : Ein DAEMON herrscht, ein DAEMON tötet. Und in einer Welt der totalen Vernetzung kann ihm keiner entkommen. Computergenie und Softwaremogul Matthew Sobol hinterlässt nach seinem plötzlichen Ableben ein tödliches Vermächtnis: Im Augenblick seines Todes infiziert der Computervirus DAEMON die Computernetzwerke weltweit. Buch: Daniel Suarez; Bearbeitung: Andreas von Westphalen; Regie: Petra Feldhoff
purl                                     : (Binary)
ldes                                     : Ein DAEMON herrscht, ein DAEMON tötet. Und in einer Welt der totalen Vernetzung kann ihm keiner entkommen. Computergenie und Softwaremogul Matthew Sobol hinterlässt nach seinem plötzlichen Ableben ein tödliches Vermächtnis: Im Augenblick seines Todes infiziert der Computervirus DAEMON die Computernetzwerke weltweit. Buch: Daniel Suarez; Bearbeitung: Andreas von Westphalen; Regie: Petra Feldhoff

Audio
ID                                       : 1
Format                                   : AAC
Format/Info                              : Advanced Audio Codec
Format profile                           : HE-AAC / LC
Codec ID                                 : 40
Duration                                 : 2h 45mn
Bit rate mode                            : Variable
Bit rate                                 : 112 Kbps
Maximum bit rate                         : 117 Kbps
Channel(s)                               : 2 channels
Channel positions                        : Front: L R
Sampling rate                            : 44.1 KHz / 22.05 KHz
Compression mode                         : Lossy
Stream size                              : 132 MiB (98%)

Text
ID                                       : 2
Format                                   : Timed text
Codec ID                                 : tx3g
Duration                                 : 2h 44mn
Duration_FirstFrame                      : -11s 102ms
Bit rate mode                            : Constant
Bit rate                                 : 0 bps
Stream size                              : 24.0 Bytes (0%)